<?xml version="1.0" encoding="utf-8"?>
<!-- Generator: Adobe Illustrator 26.0.3, SVG Export Plug-In . SVG Version: 6.00 Build 0)  -->
<svg version="1.1" id="Capa_1" xmlns="http://www.w3.org/2000/svg" xmlns:xlink="http://www.w3.org/1999/xlink" x="0px" y="0px"
	 viewBox="0 0 181 181" style="enable-background:new 0 0 181 181;" xml:space="preserve">
<style type="text/css">
	.st0{fill:#E96D49;}
	.st1{fill-rule:evenodd;clip-rule:evenodd;fill:#FFFFFF;}
</style>
<path class="st0" d="M90.5,0L90.5,0c50,0,90.5,40.5,90.5,90.5v0c0,50-40.5,90.5-90.5,90.5h0C40.5,181,0,140.5,0,90.5v0
	C0,40.5,40.5,0,90.5,0z"/>
<path class="st1" d="M139.4,96.6h-11.2c0.8-5.2,0.7-10.6-0.3-15.8c-1.4-6.9-4.3-13.4-8.6-19c-4.3-5.6-9.9-10.1-16.2-13.2
	c-6.4-3.1-13.3-4.6-20.4-4.5c-7.1,0.1-14,1.8-20.3,5c-6.3,3.2-11.7,7.9-15.9,13.6s-7,12.3-8.2,19.2c-0.8,4.9-0.9,9.8-0.1,14.7h-3
	c-2.3,0-4.1,1.8-4.1,4.1c0,2.3,1.8,4.1,4.1,4.1h12.7c2,0,3.7,1.7,3.7,3.7c0,2-1.7,3.7-3.7,3.7s-3.7,1.7-3.7,3.7v0.4
	c0,2.3,1.8,4.1,4.1,4.1H70c2,0,3.7,1.7,3.7,3.7c0,2-1.7,3.7-3.7,3.7H55.6c-2.3,0-4.1,1.8-4.1,4.1c0,2.3,1.8,4.1,4.1,4.1h67.4
	c2.3,0,4.1-1.8,4.1-4.1c0-2.3-1.8-4.1-4.1-4.1h-21.8c-2,0-3.7-1.7-3.7-3.7c0-2,1.7-3.7,3.7-3.7h1.2c2.3,0,4.1-1.8,4.1-4.1v-0.8
	c0-1.8-1.5-3.3-3.3-3.3c-1.8,0-3.3-1.5-3.3-3.3v-0.4c0-2,1.7-3.7,3.7-3.7h35.7c2.3,0,4.1-1.8,4.1-4.1
	C143.5,98.4,141.6,96.6,139.4,96.6z M110.6,116.3c0-2.3,1.8-4.1,4.1-4.1h9c2.3,0,4.1,1.8,4.1,4.1c0,2.3-1.8,4.1-4.1,4.1h-9
	C112.5,120.4,110.6,118.6,110.6,116.3z M150.1,116.3c0-2.3-1.8-4.1-4.1-4.1h-9c-2.3,0-4.1,1.8-4.1,4.1c0,2.3,1.8,4.1,4.1,4.1h9
	C148.2,120.4,150.1,118.6,150.1,116.3z"/>
</svg>
